<svg id="calendar" xmlns="http://www.w3.org/2000/svg" width="512" height="512" viewBox="0 0 512 512">
  <g id="Group_63" data-name="Group 63">
    <g id="Group_62" data-name="Group 62">
      <path id="Path_83" data-name="Path 83" d="M452,40H428V0H388V40H124V0H84V40H60A60.068,60.068,0,0,0,0,100V452a60.068,60.068,0,0,0,60,60H452a60.068,60.068,0,0,0,60-60V100A60.068,60.068,0,0,0,452,40Zm20,412a20.023,20.023,0,0,1-20,20H60a20.023,20.023,0,0,1-20-20V188H472Zm0-304H40V100A20.023,20.023,0,0,1,60,80H84v40h40V80H388v40h40V80h24a20.023,20.023,0,0,1,20,20Z" fill="#d6d6d6"/>
    </g>
  </g>
  <g id="Group_65" data-name="Group 65">
    <g id="Group_64" data-name="Group 64">
      <rect id="Rectangle_12" data-name="Rectangle 12" width="40" height="40" transform="translate(76 230)" fill="#d6d6d6"/>
    </g>
  </g>
  <g id="Group_67" data-name="Group 67">
    <g id="Group_66" data-name="Group 66">
      <rect id="Rectangle_13" data-name="Rectangle 13" width="40" height="40" transform="translate(156 230)" fill="#d6d6d6"/>
    </g>
  </g>
  <g id="Group_69" data-name="Group 69">
    <g id="Group_68" data-name="Group 68">
      <rect id="Rectangle_14" data-name="Rectangle 14" width="40" height="40" transform="translate(236 230)" fill="#d6d6d6"/>
    </g>
  </g>
  <g id="Group_71" data-name="Group 71">
    <g id="Group_70" data-name="Group 70">
      <rect id="Rectangle_15" data-name="Rectangle 15" width="40" height="40" transform="translate(316 230)" fill="#d6d6d6"/>
    </g>
  </g>
  <g id="Group_73" data-name="Group 73">
    <g id="Group_72" data-name="Group 72">
      <rect id="Rectangle_16" data-name="Rectangle 16" width="40" height="40" transform="translate(396 230)" fill="#d6d6d6"/>
    </g>
  </g>
  <g id="Group_75" data-name="Group 75">
    <g id="Group_74" data-name="Group 74">
      <rect id="Rectangle_17" data-name="Rectangle 17" width="40" height="40" transform="translate(76 310)" fill="#d6d6d6"/>
    </g>
  </g>
  <g id="Group_77" data-name="Group 77">
    <g id="Group_76" data-name="Group 76">
      <rect id="Rectangle_18" data-name="Rectangle 18" width="40" height="40" transform="translate(156 310)" fill="#d6d6d6"/>
    </g>
  </g>
  <g id="Group_79" data-name="Group 79">
    <g id="Group_78" data-name="Group 78">
      <rect id="Rectangle_19" data-name="Rectangle 19" width="40" height="40" transform="translate(236 310)" fill="#d6d6d6"/>
    </g>
  </g>
  <g id="Group_81" data-name="Group 81">
    <g id="Group_80" data-name="Group 80">
      <rect id="Rectangle_20" data-name="Rectangle 20" width="40" height="40" transform="translate(316 310)" fill="#d6d6d6"/>
    </g>
  </g>
  <g id="Group_83" data-name="Group 83">
    <g id="Group_82" data-name="Group 82">
      <rect id="Rectangle_21" data-name="Rectangle 21" width="40" height="40" transform="translate(76 390)" fill="#d6d6d6"/>
    </g>
  </g>
  <g id="Group_85" data-name="Group 85">
    <g id="Group_84" data-name="Group 84">
      <rect id="Rectangle_22" data-name="Rectangle 22" width="40" height="40" transform="translate(156 390)" fill="#d6d6d6"/>
    </g>
  </g>
  <g id="Group_87" data-name="Group 87">
    <g id="Group_86" data-name="Group 86">
      <rect id="Rectangle_23" data-name="Rectangle 23" width="40" height="40" transform="translate(236 390)" fill="#d6d6d6"/>
    </g>
  </g>
  <g id="Group_89" data-name="Group 89">
    <g id="Group_88" data-name="Group 88">
      <rect id="Rectangle_24" data-name="Rectangle 24" width="40" height="40" transform="translate(316 390)" fill="#d6d6d6"/>
    </g>
  </g>
  <g id="Group_91" data-name="Group 91">
    <g id="Group_90" data-name="Group 90">
      <rect id="Rectangle_25" data-name="Rectangle 25" width="40" height="40" transform="translate(396 310)" fill="#d6d6d6"/>
    </g>
  </g>
</svg>
