<svg xmlns="http://www.w3.org/2000/svg" width="507.996" height="369.18" viewBox="0 0 507.996 369.18">
  <g id="credit-card" transform="translate(0 -69.408)">
    <g id="Group_22" data-name="Group 22">
      <g id="Group_21" data-name="Group 21">
        <rect id="Rectangle_5" data-name="Rectangle 5" width="81.9" height="16.4" transform="translate(49.2 225.488)" fill="#fff"/>
      </g>
    </g>
    <g id="Group_24" data-name="Group 24">
      <g id="Group_23" data-name="Group 23">
        <rect id="Rectangle_6" data-name="Rectangle 6" width="122.9" height="16.4" transform="translate(49.2 274.688)" fill="#fff"/>
      </g>
    </g>
    <g id="Group_26" data-name="Group 26">
      <g id="Group_25" data-name="Group 25">
        <rect id="Rectangle_7" data-name="Rectangle 7" width="295" height="16.4" transform="translate(49.2 323.888)" fill="#fff"/>
      </g>
    </g>
    <g id="Group_28" data-name="Group 28">
      <g id="Group_27" data-name="Group 27">
        <rect id="Rectangle_8" data-name="Rectangle 8" width="49.2" height="16.4" transform="translate(49.2 372.988)" fill="#fff"/>
      </g>
    </g>
    <g id="Group_30" data-name="Group 30">
      <g id="Group_29" data-name="Group 29">
        <rect id="Rectangle_9" data-name="Rectangle 9" width="49.2" height="16.4" transform="translate(131.1 372.988)" fill="#fff"/>
      </g>
    </g>
    <g id="Group_32" data-name="Group 32">
      <g id="Group_31" data-name="Group 31">
        <rect id="Rectangle_10" data-name="Rectangle 10" width="49.2" height="16.4" transform="translate(213.1 372.988)" fill="#fff"/>
      </g>
    </g>
    <g id="Group_34" data-name="Group 34">
      <g id="Group_33" data-name="Group 33">
        <path id="Path_50" data-name="Path 50" d="M336,217.288a32.133,32.133,0,0,0-16.3,4.5,32.8,32.8,0,1,0,0,56.6,32.134,32.134,0,0,0,16.3,4.5,32.8,32.8,0,0,0,0-65.6Zm-28.6,48.6a15.225,15.225,0,0,1-4.2.6,16.4,16.4,0,1,1,0-32.8,19.341,19.341,0,0,1,4.2.6,31.819,31.819,0,0,0,0,31.6Zm28.6.6a16.4,16.4,0,1,1,16.4-16.4A16.474,16.474,0,0,1,336,266.488Z" fill="#fff"/>
      </g>
    </g>
    <g id="Group_36" data-name="Group 36">
      <g id="Group_35" data-name="Group 35">
        <path id="Path_51" data-name="Path 51" d="M490.9,179.388,147.1,70.788c-2.4-.8-21.6-7.1-30.8,16L88,176.288H24.6A24.711,24.711,0,0,0,0,200.888v213.1a24.582,24.582,0,0,0,24.6,24.6H385.2a24.43,24.43,0,0,0,20.5-11.1s11.1,3.1,13.6,3.1a24.363,24.363,0,0,0,23.4-17.2l64.2-203.2C508.9,203.988,510.3,184.588,490.9,179.388ZM122,122.988l168.9,53.3H182l-69.9-22.1Zm-14.8,46.9,20.5,6.5H105.2Zm286.2,244.1h-.1a8.237,8.237,0,0,1-8.2,8.2H24.6a8.237,8.237,0,0,1-8.2-8.2v-213.1a8.237,8.237,0,0,1,8.2-8.2H385.2a8.237,8.237,0,0,1,8.2,8.2v213.1Zm33.7-5.5a8.275,8.275,0,0,1-10.3,5.3l-7.1-2.2v-146.1l56.9,18Zm44.4-140.7-61.8-19.5v-34.4l71.7,22.6Zm19.8-62.5-4.9,15.6-77.1-24.3a24.568,24.568,0,0,0-24.1-20.2H345.3l-218.4-69,4.9-15.6a8.232,8.232,0,0,1,10.3-5.3l343.8,108.5C492.8,196.788,491.9,203.188,491.3,205.288Z" fill="#fff"/>
      </g>
    </g>
  </g>
</svg>
