<svg height="512" viewBox="0 0 128 128" width="512" xmlns="http://www.w3.org/2000/svg"><g><rect fill="#4651b8" height="74.107" rx="6" width="107.044" x="14.456" y="6.5"/><path d="m37.917 14.25h-9a1.75 1.75 0 0 1 0-3.5h9a1.75 1.75 0 0 1 0 3.5z" fill="#5360d9"/><path d="m83.878 21.72h28.622v12h-28.622z" fill="#f5ddcd"/><rect fill="#5360d9" height="74.107" rx="6" width="107.044" x="6.5" y="47.393"/><g fill="#f5ddcd"><path d="m6.5 62.613h107.044v12h-107.044z"/><g><circle cx="77.878" cy="105.667" r="6"/><circle cx="97.253" cy="105.667" r="6"/></g><path d="m46.167 107.417h-28a1.75 1.75 0 0 1 0-3.5h28a1.75 1.75 0 0 1 0 3.5z"/></g></g></svg>