<svg xmlns="http://www.w3.org/2000/svg" width="702.009" height="459.488" viewBox="0 0 702.009 459.488">
  <g id="Group_9" data-name="Group 9" transform="translate(-94 -518)">
    <g id="menu_1_" data-name="menu (1)" transform="translate(94 491.744)">
      <g id="Group_7" data-name="Group 7">
        <path id="Path_7" data-name="Path 7" d="M479.18,91.9H32.821a32.821,32.821,0,1,1,0-65.641H479.18a32.821,32.821,0,0,1,0,65.641Z" fill="#fff"/>
        <path id="Path_8" data-name="Path 8" d="M295.385,288.821H32.821a32.821,32.821,0,0,1,0-65.642H295.385a32.821,32.821,0,0,1,0,65.642Z" fill="#fff"/>
      </g>
      <path id="Path_10" data-name="Path 10" d="M479.18,485.744H32.821a32.821,32.821,0,1,1,0-65.642H479.18a32.821,32.821,0,0,1,0,65.642Z" fill="#fff"/>
    </g>
    <g id="next_1_" data-name="next (1)" transform="translate(472 497.654)">
      <g id="Group_8" data-name="Group 8" transform="translate(-12 102.129)">
        <path id="Path_11" data-name="Path 11" d="M330.638,175.308,209.293,47.018a17.744,17.744,0,0,0-26.009,0l-11.017,11.65A19.873,19.873,0,0,0,166.9,72.416a20.276,20.276,0,0,0,5.368,13.909l70.791,75.006H18.153C8.012,161.33,0,169.723,0,180.446v16.471c0,10.723,8.012,19.962,18.153,19.962H243.861L172.27,292.3a20.04,20.04,0,0,0,0,27.3l11.017,11.613a17.747,17.747,0,0,0,26.009-.026L330.641,202.9a20.413,20.413,0,0,0,0-27.6Z" transform="translate(0 -41.346)" fill="#fff"/>
      </g>
    </g>
  </g>
</svg>
