<svg xmlns="http://www.w3.org/2000/svg" width="512" height="341.334" viewBox="0 0 512 341.334">
  <g id="dashboard" transform="translate(0 -85.333)">
    <g id="Group_38" data-name="Group 38">
      <g id="Group_37" data-name="Group 37">
        <path id="Path_56" data-name="Path 56" d="M366.292,215.99,241.417,325.781c-.167.146-.333.292-.479.448A21.331,21.331,0,0,0,256,362.666a21.63,21.63,0,0,0,15.563-6.75L381.355,231.041a10.669,10.669,0,0,0-15.063-15.051Z" fill="#fff"/>
        <path id="Path_57" data-name="Path 57" d="M256,85.333c-141.167,0-256,114.844-256,256A255.6,255.6,0,0,0,12.167,419.25a10.675,10.675,0,0,0,10.167,7.417H489.667a10.675,10.675,0,0,0,10.167-7.417A255.624,255.624,0,0,0,512,341.333C512,200.177,397.167,85.333,256,85.333ZM458.667,352h31.26a233.633,233.633,0,0,1-8.177,53.333H30.25A233.641,233.641,0,0,1,22.073,352h31.26a10.667,10.667,0,1,0,0-21.334H21.873a232.84,232.84,0,0,1,25.948-97.208l27.324,15.781A10.668,10.668,0,0,0,85.811,230.76L58.548,215.014a236.215,236.215,0,0,1,71.142-71.138l15.746,27.28a10.659,10.659,0,1,0,18.458-10.667l-15.777-27.332a232.84,232.84,0,0,1,97.215-25.951v31.46a10.667,10.667,0,1,0,21.334,0v-31.46a232.84,232.84,0,0,1,97.215,25.951L348.1,160.489a10.659,10.659,0,1,0,18.458,10.667l15.746-27.28a236.215,236.215,0,0,1,71.142,71.138L426.187,230.76a10.668,10.668,0,0,0,10.666,18.479l27.324-15.781a232.844,232.844,0,0,1,25.948,97.208h-31.46a10.667,10.667,0,1,0,0,21.334Z" fill="#fff"/>
      </g>
    </g>
  </g>
</svg>
