<svg xmlns="http://www.w3.org/2000/svg" width="580" height="580" viewBox="0 0 580 580">
  <g id="Group_59" data-name="Group 59" transform="translate(-1437 -3193)">
    <g id="Page-1" transform="translate(1437 3193)">
      <g id="_017---Customer-Support" data-name="017---Customer-Support" transform="translate(0 0)">
        <path id="Shape" d="M264,0H70.667A38.667,38.667,0,0,0,32,38.667v116a38.667,38.667,0,0,0,38.667,38.667h5.964l-5.887,47.135a9.667,9.667,0,0,0,15.95,8.478l63.587-55.612H264a38.667,38.667,0,0,0,38.667-38.667v-116A38.667,38.667,0,0,0,264,0Zm19.333,154.667A19.333,19.333,0,0,1,264,174H146.647a9.667,9.667,0,0,0-6.361,2.388l-47.212,41.3,4.1-32.818A9.667,9.667,0,0,0,87.583,174H70.667a19.333,19.333,0,0,1-19.333-19.333v-116A19.333,19.333,0,0,1,70.667,19.333H264a19.333,19.333,0,0,1,19.333,19.333Z" transform="translate(277.333 0)" fill="#fff"/>
        <path id="Shape-2" data-name="Shape" d="M65,7A29,29,0,1,0,94,36,29,29,0,0,0,65,7Zm0,38.667A9.667,9.667,0,1,1,74.667,36,9.667,9.667,0,0,1,65,45.667Z" transform="translate(312 60.667)" fill="#fff"/>
        <path id="Shape-3" data-name="Shape" d="M72,7a29,29,0,1,0,29,29A29,29,0,0,0,72,7Zm0,38.667A9.667,9.667,0,1,1,81.667,36,9.667,9.667,0,0,1,72,45.667Z" transform="translate(372.667 60.667)" fill="#fff"/>
        <path id="Shape-4" data-name="Shape" d="M79,7a29,29,0,1,0,29,29A29,29,0,0,0,79,7Zm0,38.667A9.667,9.667,0,1,1,88.667,36,9.667,9.667,0,0,1,79,45.667Z" transform="translate(433.333 60.667)" fill="#fff"/>
        <path id="Shape-5" data-name="Shape" d="M238,87H153.281L89.694,31.385a9.667,9.667,0,0,0-15.95,8.478L79.631,87H73.667A38.667,38.667,0,0,0,35,125.664v87a38.667,38.667,0,0,0,38.667,38.667H238a38.667,38.667,0,0,0,38.667-38.667v-87A38.667,38.667,0,0,0,238,87Zm19.333,125.667A19.333,19.333,0,0,1,238,232H73.667a19.333,19.333,0,0,1-19.333-19.333v-87a19.333,19.333,0,0,1,19.333-19.333H90.583a9.667,9.667,0,0,0,9.589-10.865l-4.1-32.818,47.193,41.3a9.667,9.667,0,0,0,6.38,2.388H238a19.333,19.333,0,0,1,19.333,19.333Z" transform="translate(303.333 251.336)" fill="#fff"/>
        <path id="Shape-6" data-name="Shape" d="M38.667,225.664H64.032A116.493,116.493,0,0,0,88.556,255.3,154.58,154.58,0,0,0,9.667,390V438.33a29,29,0,0,0,29,29H290a29,29,0,0,0,29-29V390a155.073,155.073,0,0,0-78.841-134.744,116.618,116.618,0,0,0,24.476-29.59H290A38.667,38.667,0,0,0,328.667,187V148.33a38.551,38.551,0,0,0-18.976-33.1,154.454,154.454,0,0,0-290.715,0A38.551,38.551,0,0,0,0,148.33V187A38.667,38.667,0,0,0,38.667,225.664Zm0-19.333A19.333,19.333,0,0,1,19.333,187V148.33A19.333,19.333,0,0,1,38.667,129H55.1a113.864,113.864,0,0,0,0,77.333Zm29-38.667a96.667,96.667,0,1,1,189.051,28.42,198.02,198.02,0,0,1-55.67,9.667A29,29,0,0,0,174,187H154.667a29,29,0,0,0,0,58H174a28.923,28.923,0,0,0,27.386-19.884,251.337,251.337,0,0,0,44.534-5.8A96.57,96.57,0,0,1,67.667,167.664Zm116,48.333A9.667,9.667,0,0,1,174,225.664H154.667a9.667,9.667,0,1,1,0-19.333H174A9.667,9.667,0,0,1,183.667,216Zm76.309,78.377A134.057,134.057,0,0,1,299.667,390V438.33A9.667,9.667,0,0,1,290,448H241.667V390a9.667,9.667,0,0,0-19.333,0v58h-116V390A9.667,9.667,0,0,0,87,390v58H38.667A9.667,9.667,0,0,1,29,438.33V390a135.333,135.333,0,0,1,77.208-122.1,115.033,115.033,0,0,0,116.213,0,132.347,132.347,0,0,1,37.555,26.477ZM309.333,187A19.333,19.333,0,0,1,290,206.33H273.567a113.864,113.864,0,0,0,0-77.333H290a19.333,19.333,0,0,1,19.333,19.333Zm-145-154.667a135,135,0,0,1,122.129,77.333H264.635a115.729,115.729,0,0,0-200.6,0H42.2A135,135,0,0,1,164.333,32.331Z" transform="translate(0 112.67)" fill="#fff"/>
        <path id="Shape-7" data-name="Shape" d="M48.667,59.333h29a9.667,9.667,0,1,0,0-19.333h-29a9.667,9.667,0,0,0,0,19.333Z" transform="translate(338 346.667)" fill="#fff"/>
        <path id="Shape-8" data-name="Shape" d="M133,40H55.667a9.667,9.667,0,1,0,0,19.333H133A9.667,9.667,0,1,0,133,40Z" transform="translate(398.667 346.667)" fill="#fff"/>
        <path id="Shape-9" data-name="Shape" d="M89.667,45h-29a9.667,9.667,0,0,0,0,19.333h29a9.667,9.667,0,1,0,0-19.333Z" transform="translate(442 390)" fill="#fff"/>
        <path id="Shape-10" data-name="Shape" d="M126,45H48.667a9.667,9.667,0,0,0,0,19.333H126A9.667,9.667,0,0,0,126,45Z" transform="translate(338 390)" fill="#fff"/>
      </g>
    </g>
  </g>
</svg>
