<svg xmlns="http://www.w3.org/2000/svg" width="511.92" height="508.583" viewBox="0 0 511.92 508.583">
  <g id="language" transform="translate(0 -1.668)">
    <path id="Path_21" data-name="Path 21" d="M240.96,365.6V270.96H135.472c1.029,37.114,5.871,72.71,14.144,104.955A524.774,524.774,0,0,1,240.96,365.6Z" fill="#d6d6d6"/>
    <path id="Path_22" data-name="Path 22" d="M212.826,494.586c9.172,7.758,18.589,12.984,28.134,15.665V395.605a496.516,496.516,0,0,0-82.725,9.118,301.524,301.524,0,0,0,15.185,36.442c11.549,23.1,24.807,41.071,39.406,53.421Z" fill="#d6d6d6"/>
    <path id="Path_23" data-name="Path 23" d="M338.5,441.165a301.681,301.681,0,0,0,15.185-36.442,496.4,496.4,0,0,0-82.725-9.118V510.251c9.546-2.681,18.962-7.907,28.134-15.666,14.6-12.349,27.857-30.322,39.406-53.42Z" fill="#d6d6d6"/>
    <path id="Path_24" data-name="Path 24" d="M383,100.256a320.736,320.736,0,0,0,57.974-21.8c-1.225-1.276-2.456-2.548-3.711-3.8A255.3,255.3,0,0,0,336.289,12.33c10.546,12.465,20.3,27.519,29.044,45.009A333,333,0,0,1,383,100.256Z" fill="#d6d6d6"/>
    <path id="Path_25" data-name="Path 25" d="M270.96,270.96V365.6A524.751,524.751,0,0,1,362.3,375.915c8.274-32.245,13.116-67.842,14.145-104.955Z" fill="#d6d6d6"/>
    <path id="Path_26" data-name="Path 26" d="M173.42,70.755A301.454,301.454,0,0,0,158.235,107.2a496.411,496.411,0,0,0,82.725,9.118V1.668C231.414,4.349,222,9.575,212.826,17.334c-14.6,12.35-27.857,30.323-39.406,53.421Z" fill="#d6d6d6"/>
    <path id="Path_27" data-name="Path 27" d="M240.96,240.96V146.323a524.751,524.751,0,0,1-91.343-10.318c-8.274,32.245-13.115,67.842-14.144,104.955Z" fill="#d6d6d6"/>
    <path id="Path_28" data-name="Path 28" d="M128.916,411.664a320.709,320.709,0,0,0-57.974,21.8c1.225,1.276,2.456,2.548,3.711,3.8a255.3,255.3,0,0,0,100.978,62.324c-10.546-12.465-20.3-27.519-29.044-45.009a333.077,333.077,0,0,1-17.671-42.918Z" fill="#d6d6d6"/>
    <path id="Path_29" data-name="Path 29" d="M391.451,382.933c25.547,7.079,49.023,16.18,69.506,27.093A254.037,254.037,0,0,0,511.92,270.959H406.46c-1.041,39.422-6.18,77.395-15.009,111.974Z" fill="#d6d6d6"/>
    <path id="Path_30" data-name="Path 30" d="M383,411.664a333.077,333.077,0,0,1-17.671,42.918c-8.745,17.49-18.5,32.544-29.044,45.009a255.3,255.3,0,0,0,100.978-62.324c1.255-1.255,2.486-2.527,3.711-3.8A320.633,320.633,0,0,0,383,411.664Z" fill="#d6d6d6"/>
    <path id="Path_31" data-name="Path 31" d="M391.451,128.987c8.83,34.579,13.968,72.552,15.009,111.973H511.92a254.036,254.036,0,0,0-50.963-139.067c-20.483,10.914-43.959,20.015-69.506,27.094Z" fill="#d6d6d6"/>
    <path id="Path_32" data-name="Path 32" d="M270.96,146.323V240.96H376.448C375.419,203.846,370.577,168.25,362.3,136a524.751,524.751,0,0,1-91.343,10.318Z" fill="#d6d6d6"/>
    <path id="Path_33" data-name="Path 33" d="M299.094,17.334C289.922,9.576,280.506,4.35,270.96,1.668V116.314a496.516,496.516,0,0,0,82.725-9.118A301.524,301.524,0,0,0,338.5,70.754C326.951,47.657,313.693,29.684,299.094,17.334Z" fill="#d6d6d6"/>
    <path id="Path_34" data-name="Path 34" d="M128.916,100.256a333.074,333.074,0,0,1,17.671-42.918c8.745-17.49,18.5-32.544,29.044-45.009A255.3,255.3,0,0,0,74.653,74.653c-1.255,1.255-2.486,2.527-3.711,3.8a320.736,320.736,0,0,0,57.974,21.8Z" fill="#d6d6d6"/>
    <path id="Path_35" data-name="Path 35" d="M120.47,382.933c-8.83-34.579-13.968-72.552-15.01-111.973H0A254.036,254.036,0,0,0,50.963,410.026C71.447,399.113,94.922,390.012,120.47,382.933Z" fill="#d6d6d6"/>
    <path id="Path_36" data-name="Path 36" d="M120.47,128.987c-25.547-7.079-49.023-16.18-69.507-27.093A254.036,254.036,0,0,0,0,240.96H105.46c1.041-39.421,6.18-77.395,15.01-111.973Z" fill="#d6d6d6"/>
  </g>
</svg>
