<svg xmlns="http://www.w3.org/2000/svg" xmlns:xlink="http://www.w3.org/1999/xlink" width="143.805" height="102.759" viewBox="0 0 143.805 102.759">
  <defs>
    <linearGradient id="linear-gradient" x1="0.777" y1="0.02" x2="0.213" y2="0.955" gradientUnits="objectBoundingBox">
      <stop offset="0" stop-color="#373488"/>
      <stop offset="1" stop-color="#098dd3"/>
    </linearGradient>
  </defs>
  <g id="Group_3" data-name="Group 3" transform="translate(-940.802 -1134.654)">
    <path id="Path_1" data-name="Path 1" d="M-.374.388C.033-1.245,8.082-.851,13.938-.869,20.626-.857,25.723-1.3,25.55.856c2.172,2.89-8.831,16.467-8.831,16.467S9.5,32.73,4.153,38.306C3.2,39.627,1.321,39.4.6,39.4c-2.825,0-1.512-7.135-1.357-16.057C-.323,12.619-1.7,4.855-.374.388Z" transform="translate(942 1135.554)" fill="#434242"/>
    <path id="Path_5" data-name="Path 5" d="M-.374,38.128c.407,1.633,8.456,1.239,14.312,1.257,6.688-.013,11.785.434,11.612-1.725,2.172-2.89-8.831-16.467-8.831-16.467S9.5,5.785,4.153.209C3.2-1.112,1.321-.885.6-.885c-2.825,0-1.512,7.135-1.357,16.057C-.323,25.9-1.7,33.66-.374,38.128Z" transform="translate(942 1197.868)" fill="#434242"/>
    <path id="Path_4" data-name="Path 4" d="M1.769-.907C3.263-1.585,7.617-1.228,14.6-1.15S26.245-1.993,27.508.227c.726,1.276-1.891,5.206-4.981,10.532C14.632,24.366-1.346,46.923-.967,49.125-.448,52.137,10.456,67.7,10.456,67.7S30.075,1.8,32.2-.339c1.039-1.047,7.4-.838,13.816-.811,6.08.025,12.23-.089,13.167.811.837.8,2.988,4.588,14.877,42.023S94.112,95.547,90.905,99.861c-2.611,2.235-4.025.738-19.233,1.482-14.8-.207-26.363.865-31.553-1.482-2.61-1.181-.672-5.347,1.281-13.634,1.979-8.807,2.606-12,3.617-12.511C47.051,72.678,56,73.1,56,73.1,50.544,60.26,48,44.755,45.144,44.89s-15.9,51.576-17.41,54.971c-.644,1.075-6.812.927-13.135.883-5.83-.04-11.814.013-12.024-.9-1.389-1.372-31.68-48.606-31.4-51.111.447-3.211,18.031-29.429,18.064-29.851C-4.281,7.615.276-.228,1.769-.907Z" transform="translate(993 1136)" fill="url(#linear-gradient)"/>
  </g>
</svg>
