<svg xmlns="http://www.w3.org/2000/svg" width="511.999" height="512" viewBox="0 0 511.999 512">
  <g id="key" transform="translate(-0.001 0)">
    <g id="Group_11" data-name="Group 11">
      <path id="Path_15" data-name="Path 15" d="M463.748,48.251c-64.336-64.336-169.013-64.335-233.349,0a164.948,164.948,0,0,0-40.181,167.461L4.4,401.536A14.988,14.988,0,0,0,0,412.142V497a14.991,14.991,0,0,0,15,15H99.859a14.986,14.986,0,0,0,10.605-4.395l21.211-21.226a15,15,0,0,0,4.292-12.334l-2.637-22.793,31.582-2.974a14.975,14.975,0,0,0,13.521-13.521l2.974-31.582,22.793,2.651a14.76,14.76,0,0,0,11.7-3.691,15.04,15.04,0,0,0,5.024-11.206V363H248.35a14.986,14.986,0,0,0,10.605-4.395l38.467-37.958c58.74,19.043,122.381,4.929,166.326-39.046C528.084,217.266,528.084,112.587,463.748,48.251Zm-42.435,106.07a45,45,0,1,1,0-63.633A45.037,45.037,0,0,1,421.313,154.321Z" fill="#d6d6d6"/>
    </g>
  </g>
</svg>
