<svg height="457.14286pt" viewBox="0 0 457.14286 457.14286" width="457.14286pt" xmlns="http://www.w3.org/2000/svg"><path d="m377.949219 288.023438c-.496094 1.328124-1.160157 2.816406-1.65625 4.140624l24.507812 74.523438-34.113281 34.113281-74.359375-24.507812c-1.488281.496093-2.8125 1.160156-4.304687 1.65625l-35.441407 70.050781h-48.023437l-35.441406-70.050781c-1.488282-.496094-2.8125-1.160157-4.304688-1.65625l-74.355469 24.507812-34.117187-34.113281 24.511718-74.523438c-.5-1.324218-1.160156-2.8125-1.65625-4.140624l-70.050781-35.4375v-48.027344l70.050781-35.4375c.496094-1.328125 1.15625-2.816406 1.820313-4.140625l-24.675781-74.523438 34.117187-34.117187 74.355469 24.511718c1.492188-.496093 2.816406-1.160156 4.304688-1.65625l35.441406-70.050781h48.023437l35.441407 70.050781c1.492187.496094 2.816406 1.160157 4.304687 1.65625l74.359375-24.511718 34.113281 34.117187-24.675781 74.523438c.664062 1.324219 1.328125 2.8125 1.824219 4.140625l70.050781 35.4375v48.027344zm0 0" fill="#4b6981"/><path d="m252.585938 457.144531h-48.027344c-3.445313 0-6.601563-1.9375-8.15625-5.015625l-33.226563-65.667968-69.859375 23.027343c-3.257812 1.070313-6.882812.226563-9.324218-2.21875l-34.117188-34.117187c-2.441406-2.4375-3.300781-6.046875-2.21875-9.320313l22.980469-69.886719-65.625-33.203124c-3.074219-1.554688-5.011719-4.710938-5.011719-8.15625v-48.027344c0-3.445313 1.9375-6.601563 5.011719-8.15625l65.761719-33.269532-23.113282-69.800781c-1.089844-3.28125-.230468-6.898437 2.214844-9.339843l34.117188-34.117188c2.441406-2.4375 6.066406-3.285156 9.324218-2.21875l69.859375 23.03125 33.226563-65.675781c1.554687-3.074219 4.710937-5.011719 8.15625-5.011719h48.027344c3.445312 0 6.601562 1.9375 8.15625 5.019531l33.222656 65.667969 69.859375-23.03125c3.269531-1.066406 6.886719-.21875 9.328125 2.21875l34.117187 34.117188c2.445313 2.441406 3.300781 6.058593 2.210938 9.339843l-23.113281 69.800781 65.757812 33.269532c3.082031 1.554687 5.019531 4.710937 5.019531 8.15625v48.027344c0 3.445312-1.9375 6.601562-5.015625 8.15625l-65.628906 33.203124 22.988281 69.886719c1.078125 3.273438.222657 6.882813-2.21875 9.320313l-34.117187 34.117187c-2.441406 2.445313-6.058594 3.289063-9.328125 2.21875l-69.859375-23.027343-33.222656 65.667968c-1.554688 3.078125-4.710938 5.015625-8.15625 5.015625zm-42.40625-18.289062h36.785156l32.902344-65.035157c1.082031-2.140624 2.96875-3.777343 5.25-4.539062.539062-.179688 1.046874-.398438 1.5625-.605469.90625-.371093 1.8125-.738281 2.765624-1.054687 1.871094-.621094 3.886719-.621094 5.746094-.007813l69.015625 22.742188 26.15625-26.15625-22.757812-69.175781c-.65625-1.984376-.605469-4.128907.132812-6.085938l1.644531-4.121094c.808594-2.148437 2.390626-3.914062 4.433594-4.945312l65.039063-32.90625v-36.785156l-65.035157-32.902344c-2.046874-1.035156-3.632812-2.804688-4.4375-4.957032-.386718-1.039062-.910156-2.203124-1.433593-3.246093-1.082031-2.164063-1.265625-4.671875-.503907-6.972657l22.90625-69.167968-26.144531-26.148438-69.015625 22.75c-1.875.625-3.902344.613282-5.765625-.011718-.9375-.316407-1.824219-.675782-2.707031-1.035157-.519531-.214843-1.03125-.433593-1.582031-.617187-2.289063-.757813-4.1875-2.394532-5.269531-4.550782l-32.902344-65.035156h-36.785156l-32.90625 65.039063c-1.085938 2.148437-2.980469 3.78125-5.265626 4.546875-.542968.183594-1.058593.402344-1.574218.609375-.882813.367187-1.777344.726562-2.714844 1.042969-1.863281.628906-3.886719.636718-5.769531.011718l-69.011719-22.75-26.148438 26.148438 22.902344 69.167968c.757813 2.296876.582032 4.792969-.496094 6.953126-.527343 1.050781-1.050781 2.238281-1.449218 3.292968-.804688 2.140625-2.382813 3.898438-4.425782 4.929688l-65.035156 32.902344v36.785156l65.035156 32.90625c2.035157 1.03125 3.613282 2.785156 4.421876 4.917968l1.667968 4.175782c.726563 1.945312.773438 4.085937.121094 6.058594l-22.75 69.175781 26.15625 26.15625 69.011719-22.742188c1.867187-.617187 3.882812-.617187 5.746093.007813.960938.316406 1.871094.683594 2.777344 1.058594.515625.207031 1.019532.421874 1.558594.605468 2.277344.765625 4.160156 2.394532 5.242188 4.535156zm0 0" fill="#2a3d4f"/><path d="m314.851562 228.542969c0 47.636719-38.617187 86.253906-86.253906 86.253906-47.636718 0-86.253906-38.617187-86.253906-86.253906s38.617188-86.25 86.253906-86.25c47.636719 0 86.253906 38.613281 86.253906 86.25zm0 0" fill="#e7e4f3"/><path d="m228.597656 323.941406c-52.601562 0-95.398437-42.792968-95.398437-95.398437 0-52.601563 42.796875-95.394531 95.398437-95.394531 52.601563 0 95.398438 42.792968 95.398438 95.394531 0 52.605469-42.796875 95.398437-95.398438 95.398437zm0-172.507812c-42.515625 0-77.109375 34.59375-77.109375 77.109375 0 42.519531 34.59375 77.113281 77.109375 77.113281 42.519532 0 77.113282-34.59375 77.113282-77.113281 0-42.515625-34.59375-77.109375-77.113282-77.109375zm0 0" fill="#2a3d4f"/></svg>