<svg xmlns="http://www.w3.org/2000/svg" width="439.914" height="439.918" viewBox="0 0 439.914 439.918">
  <g id="settings" transform="translate(-0.458 0.001)">
    <path id="Path_65" data-name="Path 65" d="M220.414,76.9c-78.879,0-143.055,64.172-143.055,143.055s64.176,143.055,143.055,143.055,143.055-64.176,143.055-143.055S299.3,76.9,220.414,76.9Zm-72,247.738V274.5a30.619,30.619,0,0,1,26.871-30.309,59.561,59.561,0,0,0,90.246,0A30.623,30.623,0,0,1,292.414,274.5v50.145c-21,14.1-45.324,22.371-72,22.371S169.414,338.742,148.414,324.641Zm160-13.043V274.5a46.657,46.657,0,0,0-46.6-46.539,8.006,8.006,0,0,0-6.445,3.266,43.367,43.367,0,0,1-69.91,0,7.993,7.993,0,0,0-6.441-3.266,46.66,46.66,0,0,0-46.6,46.539v37.1a127.113,127.113,0,0,1-39.1-91.641C93.313,149.9,150.332,92.9,220.391,92.9S347.5,149.9,347.5,219.957A127.083,127.083,0,0,1,308.414,311.6Zm0,0" fill="#fff"/>
    <path id="Path_66" data-name="Path 66" d="M414.586,242.4a200.847,200.847,0,0,0-1.387-53.566L435.34,167.6a8,8,0,0,0,1.793-8.98L411.926,101a7.989,7.989,0,0,0-7.918-4.77L373.359,98.48a180.541,180.541,0,0,0-38.836-36.992l.9-30.617a8,8,0,0,0-5.113-7.7L271.66.535a8,8,0,0,0-8.937,2.238L242.863,25.789a201.063,201.063,0,0,0-53.574,1.387L168.055,5.035a8,8,0,0,0-8.98-1.793L101.457,28.457a8,8,0,0,0-4.773,7.914l2.254,30.652a180.612,180.612,0,0,0-36.992,38.832l-30.617-.9a7.96,7.96,0,0,0-7.7,5.117L1,168.719a8,8,0,0,0,2.234,8.938l23.02,19.859a200.684,200.684,0,0,0,1.387,53.566L5.492,272.316A7.991,7.991,0,0,0,3.7,281.3l25.211,57.617a8,8,0,0,0,7.918,4.773l30.648-2.254a180.612,180.612,0,0,0,38.832,36.992l-.9,30.617a8,8,0,0,0,5.117,7.7l58.648,22.637a7.991,7.991,0,0,0,8.938-2.238l19.855-23.02a200.846,200.846,0,0,0,53.566-1.383l21.234,22.141a8,8,0,0,0,8.98,1.793l57.621-25.211a8,8,0,0,0,4.77-7.914L341.891,372.9a180.65,180.65,0,0,0,36.992-38.84l30.617.9a8.008,8.008,0,0,0,7.7-5.117l22.637-58.648a8.005,8.005,0,0,0-2.238-8.937Zm-10.277,76.4-29.32-.863a7.975,7.975,0,0,0-6.895,3.563,164.848,164.848,0,0,1-39.254,41.219,8,8,0,0,0-3.223,7.02l2.156,29.336-47.316,20.7-20.312-21.18a8,8,0,0,0-7.211-2.328,185.143,185.143,0,0,1-57.207,1.477,8,8,0,0,0-7.09,2.707l-18.953,21.973-48.109-18.562.859-29.324a8,8,0,0,0-3.555-6.891,164.868,164.868,0,0,1-41.223-39.254,8.006,8.006,0,0,0-7.02-3.223L41.3,327.32,20.6,280l21.176-20.312a7.987,7.987,0,0,0,2.332-7.211,185.023,185.023,0,0,1-1.477-57.207,8,8,0,0,0-2.707-7.09L17.949,169.223l18.566-48.109,29.324.863a8.01,8.01,0,0,0,6.891-3.562A164.93,164.93,0,0,1,111.988,77.2a7.987,7.987,0,0,0,3.219-7.016l-2.156-29.34,47.316-20.7L180.68,41.32a8.011,8.011,0,0,0,7.211,2.332,184.884,184.884,0,0,1,57.223-1.48,8,8,0,0,0,7.09-2.707L271.16,17.492l48.105,18.566-.863,29.32a8,8,0,0,0,3.559,6.895,164.848,164.848,0,0,1,41.219,39.254,8.006,8.006,0,0,0,7.02,3.223l29.336-2.156,20.7,47.316-21.18,20.313a8,8,0,0,0-2.332,7.211,185.024,185.024,0,0,1,1.48,57.207,7.987,7.987,0,0,0,2.707,7.086l21.965,18.961Zm0,0" fill="#fff"/>
    <path id="Path_67" data-name="Path 67" d="M220.414,125.059a50.811,50.811,0,1,0,50.813,50.809A50.81,50.81,0,0,0,220.414,125.059Zm0,85.621a34.813,34.813,0,1,1,34.813-34.812A34.812,34.812,0,0,1,220.414,210.68Zm0,0" fill="#fff"/>
  </g>
</svg>
