<svg xmlns="http://www.w3.org/2000/svg" viewBox="0 0 1440 320"><path fill="#0099ff" fill-opacity="0.5" d="M0,288L17.1,250.7C34.3,213,69,139,103,106.7C137.1,75,171,85,206,117.3C240,149,274,203,309,197.3C342.9,192,377,128,411,128C445.7,128,480,192,514,208C548.6,224,583,192,617,170.7C651.4,149,686,139,720,149.3C754.3,160,789,192,823,186.7C857.1,181,891,139,926,101.3C960,64,994,32,1029,32C1062.9,32,1097,64,1131,96C1165.7,128,1200,160,1234,176C1268.6,192,1303,192,1337,165.3C1371.4,139,1406,85,1423,58.7L1440,32L1440,320L1422.9,320C1405.7,320,1371,320,1337,320C1302.9,320,1269,320,1234,320C1200,320,1166,320,1131,320C1097.1,320,1063,320,1029,320C994.3,320,960,320,926,320C891.4,320,857,320,823,320C788.6,320,754,320,720,320C685.7,320,651,320,617,320C582.9,320,549,320,514,320C480,320,446,320,411,320C377.1,320,343,320,309,320C274.3,320,240,320,206,320C171.4,320,137,320,103,320C68.6,320,34,320,17,320L0,320Z"></path></svg>